# xmcd
#
# Track frame offsets:
#  150
#  14256
#  29468
#  40740
#  56817
#  69256
#
# Disc length: 1235 seconds
#
# Revision: 0
# Processed by: cddbd v1.5.1PL0 Copyright (c) Steve Scherf et al.
# Submitted via: Collectorz.com Music Collector 6.9
#
DISCID=4704d106
DTITLE=Beale Street - Blues and Roll
DYEAR=2004
DGENRE=Blues
TTITLE0=10 She's A 2
TTITLE1=Never Hit The Same Place Twice
TTITLE2=Rock This House
TTITLE3=Stuck In The Middle With You
TTITLE4=Hey Sister
TTITLE5=Mustang Sally
EXTD=
EXTT0=
EXTT1=
EXTT2=
EXTT3=
EXTT4=
EXTT5=
PLAYORDER=
